PathFileType	4	(X/Y/Z)	C:\Users\Biomechanik\SynologyDrive\AlexP\Athlete_03\Athlete_3_25_03_31\Static_01\marker_experimental.trc
DataRate	CameraRate	NumFrames	NumMarkers	Units	OrigDataRate	OrigDataStartFrame	OrigNumFrames
200.000000	200.000000	4	74	mm	200.000000	186	372
Frame#	Time	BL			BR			GLAB			RFHD			LFHD			C7			T6			SPINMOL			SPINM2			SPINM3			T12			BELTOL			BELT2			BELT3			SACROL			SACR2			SACR3			LASI			RASI			LPSI			RPSI			LTHOL			LTH2			LTH3			LKNEL			LKNEM			LFIB			LSHAOL			LSHA2			LSHA3			LMALL			LMALM			LHEE			LTOE			LM5			RTHOL			RTH2			RTH3			RKNEL			RKNEM			RFIB			RSHAOL			RSHA2			RSHA3			RMALL			RMALM			RHEE			RTOE			RM5			STRN			XIPH			LACR			LUAOL			LUA2			LUA3			LCUBL			LCUBM			LLAOL			LLA2			LLA3			LWRR			LWRU			RACR			RUAOL			RUA2			RUA3			RCUBL			RCUBM			RLAOL			RLA2			RLA3			RWRR			RWRU			*73			
		X1	Y1	Z1	X2	Y2	Z2	X3	Y3	Z3	X4	Y4	Z4	X5	Y5	Z5	X6	Y6	Z6	X7	Y7	Z7	X8	Y8	Z8	X9	Y9	Z9	X10	Y10	Z10	X11	Y11	Z11	X12	Y12	Z12	X13	Y13	Z13	X14	Y14	Z14	X15	Y15	Z15	X16	Y16	Z16	X17	Y17	Z17	X18	Y18	Z18	X19	Y19	Z19	X20	Y20	Z20	X21	Y21	Z21	X22	Y22	Z22	X23	Y23	Z23	X24	Y24	Z24	X25	Y25	Z25	X26	Y26	Z26	X27	Y27	Z27	X28	Y28	Z28	X29	Y29	Z29	X30	Y30	Z30	X31	Y31	Z31	X32	Y32	Z32	X33	Y33	Z33	X34	Y34	Z34	X35	Y35	Z35	X36	Y36	Z36	X37	Y37	Z37	X38	Y38	Z38	X39	Y39	Z39	X40	Y40	Z40	X41	Y41	Z41	X42	Y42	Z42	X43	Y43	Z43	X44	Y44	Z44	X45	Y45	Z45	X46	Y46	Z46	X47	Y47	Z47	X48	Y48	Z48	X49	Y49	Z49	X50	Y50	Z50	X51	Y51	Z51	X52	Y52	Z52	X53	Y53	Z53	X54	Y54	Z54	X55	Y55	Z55	X56	Y56	Z56	X57	Y57	Z57	X58	Y58	Z58	X59	Y59	Z59	X60	Y60	Z60	X61	Y61	Z61	X62	Y62	Z62	X63	Y63	Z63	X64	Y64	Z64	X65	Y65	Z65	X66	Y66	Z66	X67	Y67	Z67	X68	Y68	Z68	X69	Y69	Z69	X70	Y70	Z70	X71	Y71	Z71	X72	Y72	Z72	X73	Y73	Z73	X74	Y74	Z74	

187	0.93	960.75927734375	36.23223114013684	-1933.518310546875	1063.163696289062	32.94052124023437	86.64762878417969	369.7135925292969	1600.533447265625	-1184.973999023438	319.1831665039062	1627.619140625	-1122.718139648438	330.2114868164062	1628.729370117188	-1258.528686523438	142.66162109375	1439.040649414062	-1205.347534179688	nan	nan	nan	100.3860244750977	1229.9365234375	-1237.75244140625	94.60781097412109	1220.6640625	-1188.356811523438	107.7311019897461	1165.443359375	-1223.043701171875	124.0464553833008	1102.325927734375	-1219.988891601562	95.88977813720703	1081.411376953125	-1234.45849609375	95.5994873046875	1078.090209960938	-1184.16796875	88.82847595214844	1018.657287597656	-1214.246948242188	104.1984634399414	959.5528564453126	-1238.840454101562	104.9163970947266	957.4354858398439	-1187.46630859375	85.90940856933594	900.2232666015626	-1214.845458984375	334.7423400878906	934.7284545898439	-1330.914184570312	326.6440734863281	925.8281860351564	-1083.622924804688	116.9588775634766	976.9636840820314	-1257.6044921875	117.516845703125	967.9051513671876	-1173.151489257812	192.5118713378906	683.7006225585939	-1400.341064453125	142.6898040771484	630.7753906250001	-1367.590942382812	188.8971557617188	623.9307861328126	-1386.400512695312	236.1489105224609	487.6503601074219	-1382.892211914062	254.1292877197266	462.0780639648438	-1263.6259765625	193.2927398681641	425.9167175292969	-1387.727783203125	159.3988342285156	328.9098205566407	-1403.453369140625	110.1456909179688	267.3659362792969	-1390.567504882812	159.1166839599609	267.0655517578126	-1401.9033203125	142.7546691894531	81.4201202392579	-1381.496948242188	183.6266479492188	89.73986053466805	-1295.712158203125	95.00715637207031	67.55456542968759	-1318.326904296875	309.8968811035156	47.73807525634774	-1348.663208007812	253.0570983886719	31.14361381530771	-1443.630493164062	161.0352630615234	696.5549926757814	-1024.940795898438	211.3443145751953	637.7922363281251	-1005.364685058594	167.9932403564453	635.3346557617189	-1030.159912109375	201.2162933349609	496.2921142578126	-1026.55322265625	239.2095642089844	464.0316772460938	-1148.03662109375	154.1915283203125	432.7138977050782	-1029.645874023438	119.6817855834961	346.9699707031251	-1019.41259765625	149.1773681640625	275.6991882324219	-1004.023681640625	107.8467254638672	286.5629882812501	-1029.502319335938	124.9767379760742	85.14472198486334	-1041.909057617188	189.0988159179688	95.58175659179695	-1114.653686523438	90.57909393310547	63.79813385009773	-1115.137939453125	292.7108764648438	47.6024017333985	-1043.776611328125	216.4523620605469	39.48686218261724	-964.2077026367188	324.8536071777344	1365.895751953125	-1200.901489257812	355.7128601074219	1220.282470703125	-1202.973876953125	203.1422424316406	1435.774291992188	-1351.501342773438	169.9875183105469	1410.799682617188	-1490.47509765625	159.0283050537109	1385.296264648438	-1550.774291992188	202.32861328125	1413.632568359375	-1547.883178710938	184.0601806640625	1401.693237304688	-1655.090209960938	257.1628723144531	1311.399780273438	-1653.265380859375	182.3565673828125	1376.171142578125	-1745.704833984375	175.4576873779297	1316.848754882812	-1798.582763671875	187.4780578613281	1365.326538085938	-1806.671630859375	200.8069458007812	1356.216918945313	-1910.95849609375	279.8973388671875	1353.2666015625	-1903.308837890625	203.1764221191406	1429.55224609375	-1060.786865234375	159.9432067871094	1411.594970703125	-938.6713867187499	177.3750305175781	1408.833740234375	-875.0363159179686	130.7940368652344	1388.933349609375	-885.0759277343749	153.0811767578125	1391.107543945312	-770.3819580078124	209.7086486816406	1295.9248046875	-770.6709594726561	141.4878540039062	1371.065551757812	-671.5853881835936	157.2942657470703	1413.072631835938	-605.5549926757811	140.6479797363281	1365.490234375	-609.2788696289061	152.3138427734375	1376.952880859375	-516.8912353515624	230.3890686035156	1352.562377929688	-504.4552612304687	102.3996810913086	1266.7470703125	-1215.622802734375	
188	0.9350000000000001	960.7606811523438	36.21257019042981	-1933.527465820312	1063.146728515625	32.92884445190429	86.64952850341797	369.7881774902344	1600.512939453125	-1184.888793945312	319.2257385253906	1627.621948242188	-1122.6484375	330.2541809082031	1628.734985351562	-1258.512329101562	142.70849609375	1439.04150390625	-1205.32666015625	nan	nan	nan	100.4513702392578	1229.931640625	-1237.710327148438	94.72072601318359	1220.68310546875	-1188.325927734375	107.7831649780273	1165.43798828125	-1222.999389648438	124.1068267822266	1102.34375	-1219.955932617188	95.95180511474609	1081.426635742188	-1234.421142578125	95.66230773925781	1078.118041992188	-1184.11572265625	88.83774566650391	1018.672973632813	-1214.225463867188	104.223388671875	959.5616455078126	-1238.792114257812	104.9291687011719	957.4413452148439	-1187.422119140625	85.93003082275391	900.2423706054689	-1214.79931640625	334.7609558105469	934.7132568359376	-1330.8759765625	326.6571655273438	925.8311157226564	-1083.610961914062	117.139030456543	976.9341430664064	-1257.564575195312	117.5469818115234	967.9215087890626	-1173.108154296875	192.537841796875	683.7362670898439	-1400.328247070312	142.7222900390625	630.7757568359376	-1367.547729492188	188.9096984863281	623.9320678710939	-1386.3779296875	236.14111328125	487.6585083007813	-1382.866943359375	254.1167602539062	462.0674743652344	-1263.591674804688	193.2772216796875	425.9138183593751	-1387.680908203125	159.3930053710938	328.8973999023439	-1403.4384765625	110.1151657104492	267.3702392578126	-1390.564208984375	159.1026763916016	267.0620422363282	-1401.886352539062	142.7653198242188	81.41614532470712	-1381.4970703125	183.6090545654297	89.72743225097665	-1295.708618164062	95.01180267333984	67.54959869384774	-1318.323120117188	309.8997192382812	47.69758224487313	-1348.680053710938	253.0417175292969	31.14513206481942	-1443.631958007812	161.0519561767578	696.5588378906251	-1024.929931640625	211.3478393554688	637.7877197265626	-1005.337829589844	167.9841003417969	635.3347167968751	-1030.14013671875	201.2165679931641	496.2896423339844	-1026.52734375	239.2049407958984	464.0473632812501	-1148.017578125	154.1950836181641	432.7191772460938	-1029.62060546875	119.6677780151367	346.9624633789063	-1019.395446777344	149.1867980957031	275.7243347167969	-1003.962646484375	107.8435821533203	286.5580139160157	-1029.485229492188	124.9839553833008	85.1462020874024	-1041.8876953125	189.0869140625	95.64105987548835	-1114.69482421875	90.58917999267578	63.79001235961921	-1115.128540039062	292.7181701660156	47.60216522216803	-1043.76904296875	216.4596252441406	39.45366287231451	-964.2278442382812	324.8945007324219	1365.915161132812	-1200.87646484375	355.7616882324219	1220.2763671875	-1202.935546875	203.2020263671875	1435.761108398438	-1351.4765625	170.0211791992188	1410.7685546875	-1490.46044921875	159.10791015625	1385.515991210938	-1550.847290039062	202.3760375976562	1413.6103515625	-1547.836547851562	184.110107421875	1401.648559570312	-1655.059936523438	257.2228088378906	1311.312744140625	-1653.223510742188	182.4285278320312	1376.12451171875	-1745.668212890625	175.4971923828125	1316.789184570312	-1798.5693359375	187.5292510986328	1365.276245117188	-1806.6494140625	200.9141693115234	1356.17431640625	-1910.932739257812	279.9602355957031	1353.231323242188	-1903.2880859375	203.1907196044922	1429.557861328125	-1060.776489257812	159.97265625	1411.616943359375	-938.6447143554686	177.4428253173828	1408.833374023438	-875.0360717773436	130.8718719482422	1388.940307617188	-885.0751342773436	153.1448516845703	1391.12646484375	-770.3521118164061	209.8036041259766	1295.944702148438	-770.6136474609374	141.5457000732422	1371.0810546875	-671.5450439453124	157.3415374755859	1413.083984375	-605.5350341796874	140.6977386474609	1365.509521484375	-609.2515869140624	152.4085540771484	1377.022705078125	-516.9598999023436	230.4337921142578	1352.601440429688	-504.4398803710937	102.4716033935547	1266.740234375	-1215.590698242188	
189	0.9400000000000001	960.7568969726562	36.20132827758801	-1933.52197265625	1063.158447265625	32.92656707763671	86.65029907226562	369.8146057128906	1600.526489257812	-1184.89306640625	319.2440795898438	1627.621337890625	-1122.6220703125	330.3069152832031	1628.7353515625	-1258.498413085938	142.7425689697266	1439.042602539062	-1205.316650390625	nan	nan	nan	100.5023345947266	1229.9287109375	-1237.689331054688	94.78240966796875	1220.683959960938	-1188.303344726562	107.8324890136719	1165.44189453125	-1222.981689453125	124.1494064331055	1102.367431640625	-1219.917236328125	95.91348266601562	1081.295166015625	-1234.331176757812	95.70499420166016	1078.136352539062	-1184.082885742188	88.93795013427734	1018.670288085938	-1214.141235351562	104.2291946411133	959.5738525390626	-1238.767456054688	104.9620056152344	957.4772949218751	-1187.362670898438	85.94411468505859	900.2581176757814	-1214.775024414062	334.7951965332031	934.6860961914064	-1330.837768554688	326.684814453125	925.8095092773439	-1083.559692382812	117.1538619995117	976.9581298828126	-1257.527709960938	117.5774841308594	967.9364013671876	-1173.066650390625	192.5438385009766	683.7520751953126	-1400.2900390625	142.716552734375	630.7792358398439	-1367.520751953125	188.907958984375	623.9266357421876	-1386.355834960938	236.1683807373047	487.5854492187501	-1382.591064453125	254.1217193603516	462.0768737792969	-1263.57421875	193.2703399658203	425.9161682128907	-1387.660766601562	159.3748016357422	328.9093017578126	-1403.415283203125	110.1118698120117	267.3693237304688	-1390.53955078125	159.0897369384766	267.0661926269532	-1401.85498046875	142.7661743164062	81.42154693603524	-1381.491088867188	183.6085205078125	89.72009277343759	-1295.710327148438	95.01609802246094	67.5420455932618	-1318.319213867188	309.9054870605469	47.69101715087899	-1348.690307617188	253.0015563964844	31.21008491516122	-1443.647338867188	161.0699615478516	696.5545043945314	-1024.902709960938	211.3594207763672	637.7926635742189	-1005.320007324219	167.9968872070312	635.3530883789064	-1030.106079101562	201.2068023681641	496.2736206054688	-1026.510620117188	239.1927337646484	464.0430603027344	-1148.00146484375	154.1925506591797	432.7144165039063	-1029.6044921875	119.6732406616211	346.9634094238282	-1019.369873046875	149.1961822509766	275.7135620117188	-1003.955932617188	107.8422012329102	286.5538024902344	-1029.481811523438	124.9813079833984	85.14218902587896	-1041.894287109375	189.0917816162109	95.63781738281257	-1114.701171875	90.6041259765625	63.76747894287116	-1115.1162109375	292.7169799804688	47.60226440429694	-1043.767456054688	216.4517822265625	39.47804260253912	-964.2056884765625	324.9364318847656	1365.91650390625	-1200.85107421875	355.809814453125	1220.2802734375	-1202.900146484375	203.2588806152344	1435.75439453125	-1351.447143554688	170.0684967041016	1410.76025390625	-1490.444702148438	159.1534576416016	1385.478271484375	-1550.806030273438	202.3962097167969	1413.566772460938	-1547.822021484375	184.1708831787109	1401.607055664062	-1655.023803710938	257.264892578125	1311.3115234375	-1653.206665039062	182.3656768798828	1376.085571289062	-1745.699096679688	175.5615844726562	1316.72509765625	-1798.561401367188	187.6105041503906	1365.238647460938	-1806.615234375	200.9804992675781	1356.126220703125	-1910.90087890625	280.0359497070312	1353.191650390625	-1903.26513671875	203.2271118164062	1429.568359375	-1060.7412109375	160.0386352539062	1411.623901367188	-938.6258544921874	177.5008392333984	1408.857299804688	-874.9825439453124	130.8929748535156	1388.859619140625	-884.9260253906249	153.2029113769531	1391.145141601562	-770.3428955078124	209.7852020263672	1295.9375	-770.6514282226561	141.6061401367188	1371.10888671875	-671.5020141601561	157.4065246582031	1413.120239257812	-605.4856567382811	140.7687072753906	1365.537719726562	-609.2062988281249	152.4813537597656	1377.0458984375	-516.9326171874999	230.5059509277344	1352.61181640625	-504.4162902832031	102.4817810058594	1266.757690429688	-1215.567504882812	
190	0.9450000000000001	960.7581787109375	36.19081115722668	-1933.523315429688	1063.15283203125	32.9278450012207	86.66094970703125	369.6672973632812	1600.597900390625	-1185.10546875	319.2785339355469	1627.623046875	-1122.669189453125	330.3568115234375	1628.742065429688	-1258.48193359375	142.7879791259766	1439.039794921875	-1205.292846679688	nan	nan	nan	100.537841796875	1229.927978515625	-1237.663940429688	94.82112884521484	1220.703857421875	-1188.266967773438	107.8561553955078	1165.44482421875	-1222.9658203125	124.1674957275391	1102.3955078125	-1219.8642578125	96.06415557861328	1081.462158203125	-1234.350708007812	95.75081634521484	1078.162475585938	-1184.046020507812	88.95140838623047	1018.705810546875	-1214.1416015625	104.2605361938477	959.5852050781251	-1238.723510742188	104.9965591430664	957.4779663085939	-1187.330322265625	85.95771789550781	900.2777099609376	-1214.7216796875	334.8291015625	934.6707763671876	-1330.776611328125	326.70751953125	925.8116455078126	-1083.537109375	116.8231353759766	976.8646240234376	-1257.5732421875	117.5978851318359	967.9569702148439	-1173.024536132812	192.4994049072266	683.7894897460939	-1400.255737304688	142.7529296875	630.7756347656251	-1367.458740234375	188.9041748046875	623.9221191406251	-1386.321655273438	236.1737213134766	487.5765380859376	-1382.570434570312	254.1122283935547	462.0863647460938	-1263.539672851562	193.2770080566406	425.9065246582032	-1387.652099609375	159.3623352050781	328.9118957519532	-1403.392822265625	110.0997924804688	267.3815307617188	-1390.523803710938	159.0751190185547	267.0763244628907	-1401.8388671875	142.7577667236328	81.42864990234384	-1381.491577148438	183.6091918945312	89.72936248779305	-1295.711181640625	95.00415802001953	67.54190063476571	-1318.314575195312	309.9015502929688	47.70443725585946	-1348.687622070312	253.0497741699219	31.13144493103036	-1443.622680664062	161.0794677734375	696.5543823242189	-1024.877807617188	211.3630065917969	637.7834472656251	-1005.307739257812	168.0032196044922	635.3464355468751	-1030.082885742188	201.2044067382812	496.2709960937501	-1026.4873046875	239.1673583984375	464.0702514648438	-1147.974853515625	154.1922607421875	432.7218933105469	-1029.576782226562	119.6648101806641	346.9522705078126	-1019.342895507812	149.1788024902344	275.7040100097657	-1003.920349121094	107.8460388183594	286.5497741699219	-1029.453247070312	124.9733963012695	85.14055633544928	-1041.884887695312	189.0791931152344	95.5846252441407	-1114.658081054688	90.56228637695312	63.81065368652351	-1115.09375	292.7073059082031	47.60743331909186	-1043.765869140625	216.4483489990234	39.44070434570318	-964.2294921875	324.9733276367188	1365.933959960938	-1200.814819335938	355.8332824707031	1220.352172851562	-1202.855834960938	203.3318023681641	1435.743286132812	-1351.402221679688	170.0791625976562	1410.736450195312	-1490.436767578125	159.0699768066406	1385.266235351562	-1550.775634765625	202.4477386474609	1413.539306640625	-1547.777099609375	184.2205352783203	1401.57373046875	-1655.000244140625	257.3033142089844	1311.283813476562	-1653.199340820312	182.5298156738281	1376.067504882812	-1745.631713867188	175.6765594482422	1316.709350585938	-1798.532104492188	187.6343078613281	1365.190063476562	-1806.604370117188	201.0869140625	1356.091796875	-1910.854858398438	280.1038513183594	1353.158081054688	-1903.240600585938	203.2622375488281	1429.5693359375	-1060.716796875	160.0801239013672	1411.633666992188	-938.5959472656249	177.4875183105469	1409.042236328125	-874.9304199218749	130.9756317138672	1388.974853515625	-884.9931640624999	153.2676086425781	1391.170532226562	-770.3250122070311	210.0408630371094	1295.993896484375	-770.4411010742186	141.6656951904297	1371.141479492188	-671.4852905273436	157.4828186035156	1413.162963867188	-605.4761352539061	140.8348083496094	1365.582763671875	-609.1647338867186	152.3423309326172	1377.230346679688	-516.7379150390624	230.5560302734375	1352.649169921875	-504.3978576660156	102.5325164794922	1266.747436523438	-1215.54541015625	
